<!-- Generated by IcoMoon.io -->
<svg version="1.1" xmlns="http://www.w3.org/2000/svg" width="32" height="32" viewBox="0 0 32 32">
<title>basket</title>
<path fill="#ff7cb0" d="M13.333 10.667h2.667v6.667h-2.667v-6.667z"></path>
<path fill="#ff7cb0" d="M18.667 10.667h2.667v6.667h-2.667v-6.667z"></path>
<path fill="#ff7cb0" d="M26.667 14.667l-2.667 2.667v-6.667h2.667z"></path>
<path fill="#111" d="M30 6.667h-20c-0.4 0-0.667-0.267-0.667-0.667v-2.667c0-1.133-0.867-2-2-2h-7.333v1.333h0.067c0.267 1.333 1.333 2.333 2.667 2.6 0.267 1.533 1.667 2.733 3.267 2.733h2v9.333h1.333v-9.467c0.2 0.067 0.4 0.133 0.667 0.133h20c0.4 0 0.667 0.267 0.667 0.667v4.667c0 0.533-0.333 1.467-0.733 1.867l-4.2 4.667c-0.333 0.4-1.2 0.8-1.733 0.8h-14c-1.133 0-2 0.867-2 2v1.4c-1.533 0.333-2.667 1.667-2.667 3.267 0 1.867 1.467 3.333 3.333 3.333 1.6 0 2.933-1.133 3.267-2.667h5.467c0.333 1.533 1.667 2.667 3.267 2.667 1.867 0 3.333-1.467 3.333-3.333s-1.467-3.333-3.333-3.333c-1.6 0-2.933 1.133-3.267 2.667h-5.467c-0.267-1.333-1.267-2.333-2.6-2.6v-1.4c0-0.4 0.267-0.667 0.667-0.667h14c0.933 0 2.067-0.533 2.733-1.2l4.2-4.667c0.6-0.667 1.067-1.867 1.067-2.8v-4.667c0-1.133-0.867-2-2-2zM1.467 2.667h5.867c0.4 0 0.667 0.267 0.667 0.667v0.667h-4.667c-0.867 0-1.6-0.533-1.867-1.333zM6 6.667c-0.867 0-1.6-0.533-1.867-1.333h3.867v1.333h-2zM20.667 25.333c1.133 0 2 0.867 2 2s-0.867 2-2 2c-1.133 0-2-0.867-2-2s0.867-2 2-2zM10.667 27.333c0 1.133-0.867 2-2 2s-2-0.867-2-2c0-1.133 0.867-2 2-2s2 0.867 2 2z"></path>
<path fill="#303033" d="M20.667 28.333c0.533 0 1-0.467 1-1s-0.467-1-1-1c-0.533 0-1 0.467-1 1s0.467 1 1 1z"></path>
<path fill="#111" d="M7.667 27.333c0 0.533 0.467 1 1 1s1-0.467 1-1c0-0.533-0.467-1-1-1s-1 0.467-1 1z"></path>
</svg>
