<!-- Generated by IcoMoon.io -->
<svg version="1.1" xmlns="http://www.w3.org/2000/svg" width="32" height="32" viewBox="0 0 32 32">
<title>ig</title>
<path d="M20.667 4h-9.333c-4.050 0-7.333 3.283-7.333 7.333v0 9.333c0 4.050 3.283 7.333 7.333 7.333v0h9.333c4.050 0 7.333-3.283 7.333-7.333v0-9.333c0-4.050-3.283-7.333-7.333-7.333v0zM26 20.667c-0.003 2.944-2.389 5.33-5.333 5.333h-9.334c-2.944-0.003-5.33-2.389-5.333-5.333v-9.334c0.003-2.944 2.389-5.33 5.333-5.333h9.334c2.944 0.003 5.33 2.389 5.333 5.333v0z"></path>
<path d="M16 10c-3.314 0-6 2.686-6 6s2.686 6 6 6c3.314 0 6-2.686 6-6v0c0-3.314-2.686-6-6-6v0zM16 20c-2.209 0-4-1.791-4-4s1.791-4 4-4c2.209 0 4 1.791 4 4v0c-0.003 2.208-1.792 3.997-4 4h-0z"></path>
<path d="M23.6 9.733c0 0.736-0.597 1.333-1.333 1.333s-1.333-0.597-1.333-1.333c0-0.736 0.597-1.333 1.333-1.333s1.333 0.597 1.333 1.333z"></path>
</svg>
