<!-- Generated by IcoMoon.io -->
<svg version="1.1" xmlns="http://www.w3.org/2000/svg" width="32" height="32" viewBox="0 0 32 32">
<title>li</title>
<path fill="#000" d="M0 0h32v32h-32v-32z"></path>
<path fill="#fff" d="M9.374 4.752c-1.556 0-3.068 0-4.624 0 0 7.534 0 15.022 0 22.493 4.57 0 9.098 0 13.605 0 0-1.482 0-2.914 0-4.414-3.006 0-5.973 0-8.981 0 0-6.063 0-12.057 0-18.079z"></path>
<path fill="#fff" d="M22.877 13.768c0 4.524 0 9.008 0 13.48 1.488 0 2.934 0 4.373 0 0-4.519 0-8.989 0-13.48-1.474 0-2.918 0-4.373 0z"></path>
<path fill="#fff" d="M27.243 4.755c-1.465 0-2.895 0-4.365 0 0 1.49 0 2.934 0 4.364 1.488 0 2.933 0 4.365 0 0-1.476 0-2.905 0-4.364z"></path>
</svg>
