<!-- Generated by IcoMoon.io -->
<svg version="1.1" xmlns="http://www.w3.org/2000/svg" width="32" height="32" viewBox="0 0 32 32">
<title>call</title>
<path fill="none" stroke="#000" stroke-width="1" stroke-miterlimit="4" stroke-linecap="round" stroke-linejoin="round" d="M16.53 23.47c-3.644-1.644-6.488-4.523-8.046-8.094l-0.039-0.101 2.105-1.42c-0.558-1.4-0.882-3.022-0.885-4.719v-0.001h-5.030c0 10.068 8.162 18.23 18.23 18.23v0-5.030c-1.754-0.004-3.425-0.351-4.953-0.977l0.088 0.032z"></path>
<path fill="none" stroke="#000" stroke-width="1" stroke-miterlimit="4" stroke-linecap="round" stroke-linejoin="round" d="M15.365 10.635c3.314 0 6 2.686 6 6v0"></path>
<path fill="none" stroke="#000" stroke-width="1" stroke-miterlimit="4" stroke-linecap="round" stroke-linejoin="round" d="M15.365 7.635c4.971 0 9 4.029 9 9v0"></path>
<path fill="none" stroke="#000" stroke-width="1" stroke-miterlimit="4" stroke-linecap="round" stroke-linejoin="round" d="M15.365 4.635c6.627 0 12 5.373 12 12v0"></path>
</svg>
