<!-- Generated by IcoMoon.io -->
<svg version="1.1" xmlns="http://www.w3.org/2000/svg" width="32" height="32" viewBox="0 0 32 32">
<title>delivery</title>
<path d="M2.494 19.503h18.755v2.594h-13.645c-0.407-1.117-1.479-1.918-2.736-1.918-1.238 0-2.298 0.777-2.718 1.869-0.518-0.15-0.897-0.626-0.897-1.193v-0.11c0-0.687 0.556-1.242 1.242-1.242zM6.938 22.801c0 1.195-0.972 2.167-2.167 2.167s-2.167-0.972-2.167-2.167 0.972-2.167 2.167-2.167c1.195 0 2.167 0.973 2.167 2.167zM6.276 22.801c0-0.829-0.675-1.504-1.504-1.504s-1.504 0.675-1.504 1.504c0 0.829 0.675 1.504 1.504 1.504s1.504-0.675 1.504-1.504zM28.84 22.801c0 1.195-0.972 2.167-2.167 2.167s-2.167-0.972-2.167-2.167 0.972-2.167 2.167-2.167c1.195 0 2.167 0.973 2.167 2.167zM28.177 22.801c0-0.829-0.675-1.504-1.504-1.504s-1.504 0.675-1.504 1.504c0 0.829 0.674 1.504 1.504 1.504s1.504-0.675 1.504-1.504zM32 16.577v4.899c0 0.229-0.185 0.414-0.414 0.414h-2.165c-0.459-1.008-1.474-1.712-2.652-1.712s-2.193 0.703-2.652 1.712h-1.46c-0.229 0-0.414-0.185-0.414-0.414v-9.84c0-0.229 0.186-0.414 0.414-0.414h5.451c0.229 0 0.576 0.076 0.828 0.414l3.064 4.94zM30.069 15.501l-1.863-3.091c-0.144-0.266-0.321-0.414-0.953-0.414h-3.381c-0.229 0-0.414 0.185-0.414 0.414v3.091c0 0.229 0.186 0.414 0.414 0.414h5.782c0.229 0 0.415-0.185 0.415-0.414zM31.682 20.206c0-0.213-0.173-0.386-0.386-0.386s-0.386 0.174-0.386 0.386v0.732c0 0.213 0.173 0.386 0.386 0.386s0.386-0.173 0.386-0.386v-0.732zM0 18.762h21.249v-11.73h-21.249v11.73z"></path>
</svg>
