<!-- Generated by IcoMoon.io -->
<svg version="1.1" xmlns="http://www.w3.org/2000/svg" width="32" height="32" viewBox="0 0 32 32">
<title>vk</title>
<path d="M28.73 9.333h-4.387c0 0 0 0 0 0-0.375 0-0.702 0.209-0.87 0.517l-0.003 0.005s-1.75 3.223-2.312 4.308c-1.512 2.92-2.491 2.003-2.491 0.648v-4.673c0-0.813-0.659-1.472-1.472-1.472v0h-3.299c-0.059-0.005-0.127-0.007-0.196-0.007-0.876 0-1.653 0.426-2.134 1.083l-0.005 0.007s1.675-0.271 1.675 1.986c0 0.56 0.029 2.17 0.055 3.52 0 0.007 0 0.016 0 0.024 0 0.537-0.435 0.973-0.973 0.973-0.288 0-0.546-0.125-0.724-0.323l-0.001-0.001c-1.272-1.749-2.39-3.744-3.261-5.867l-0.070-0.191c-0.15-0.32-0.469-0.537-0.839-0.537-0 0-0.001 0-0.001 0h0c-0.951 0-2.855 0-3.986 0-0.001 0-0.003-0-0.005-0-0.374 0-0.677 0.303-0.677 0.677 0 0.085 0.016 0.166 0.044 0.24l-0.002-0.005c1.21 3.32 6.424 13.754 12.376 13.754h2.505c0.547 0 0.99-0.443 0.99-0.99v0-1.513c0-0.537 0.435-0.972 0.972-0.972 0.258 0 0.492 0.1 0.666 0.264l-0-0 2.998 2.817c0.259 0.244 0.609 0.394 0.994 0.394h3.937c1.899 0 1.899-1.318 0.864-2.337-0.729-0.718-3.358-3.489-3.358-3.489-0.236-0.244-0.381-0.577-0.381-0.943 0-0.31 0.104-0.596 0.279-0.825l-0.002 0.003c0.85-1.118 2.24-2.949 2.829-3.733 0.806-1.072 2.264-3.343 0.265-3.343z"></path>
</svg>
